# xmcd
#
# Track frame offsets: 
#        150
#        15269
#        32495
#        47288
#        66688
#        89684
#        109230
#        131666
#        149490
#        165081
#        183655
#        202906
#
# Disc length: 2957 seconds
#
# Revision: 0
# Processed by: cddbd v1.5.2PL0 Copyright (c) Steve Scherf et al.
# Submitted via: ExactAudioCopy v0.99pb5
#
DISCID=a00b8b0c
DTITLE=Lucie Silvas - E.G.O.
DYEAR=2018
DGENRE=Country
TTITLE0=Kite
TTITLE1=Girls From California
TTITLE2=Smoking Your Weed
TTITLE3=I Want You All to Myself
TTITLE4=Black Jeans
TTITLE5=First Rate Heartache
TTITLE6=Everything Looks Beautiful
TTITLE7=People Can Change
TTITLE8=My Old Habits
TTITLE9=Just For the Record
TTITLE10=E.G.O.
TTITLE11=Change My Mind
EXTD=
EXTT0=
EXTT1=
EXTT2=
EXTT3=
EXTT4=
EXTT5=
EXTT6=
EXTT7=
EXTT8=
EXTT9=
EXTT10=
EXTT11=
PLAYORDER=
